<svg width="14.650635" height="16.701660" viewBox="0 0 14.6506 16.7017" fill="none" xmlns="http://www.w3.org/2000/svg" xmlns:xlink="http://www.w3.org/1999/xlink">
	<desc>
			Created with Pixso.
	</desc>
	<defs/>
	<path id="Vector" d="M14.65 15.98L10.08 10.78C10.94 9.64 11.47 8.15 11.47 6.53C11.47 2.93 8.89 0 5.73 0C4.2 0 2.76 0.67 1.67 1.91C0.59 3.14 -0.01 4.79 0 6.53C0 10.14 2.57 13.07 5.73 13.07C7.15 13.07 8.45 12.47 9.46 11.49L14.02 16.7L14.65 15.98ZM5.73 12.07C3.06 12.07 0.88 9.58 0.88 6.53C0.88 5.05 1.38 3.67 2.3 2.62C3.21 1.58 4.43 1 5.73 1C8.41 1 10.58 3.48 10.58 6.53C10.58 9.58 8.41 12.07 5.73 12.07Z" fill="#FFFFFF" fill-opacity="1.000000" fill-rule="nonzero"/>
</svg>
